<svg width="45" height="45" viewBox="0 0 45 45" fill="none" xmlns="http://www.w3.org/2000/svg">
<rect width="45" height="45" rx="10" fill="white"/>
<path d="M27.4175 21.4062C27.0413 21.4062 26.7438 21.0999 26.7438 20.7324C26.7438 20.4087 26.42 19.7349 25.8775 19.1487C25.3437 18.5799 24.7575 18.2474 24.2675 18.2474C23.8913 18.2474 23.5938 17.9412 23.5938 17.5737C23.5938 17.2062 23.9 16.8999 24.2675 16.8999C25.1425 16.8999 26.0613 17.3724 26.8663 18.2212C27.6188 19.0174 28.1 20.0062 28.1 20.7237C28.1 21.0999 27.7938 21.4062 27.4175 21.4062Z" fill="#0EABEB"/>
<path d="M30.5763 21.4062C30.2 21.4062 29.9025 21.1 29.9025 20.7325C29.9025 17.6262 27.3738 15.1062 24.2763 15.1062C23.9 15.1062 23.6025 14.8 23.6025 14.4325C23.6025 14.065 23.9 13.75 24.2675 13.75C28.1175 13.75 31.25 16.8825 31.25 20.7325C31.25 21.1 30.9438 21.4062 30.5763 21.4062Z" fill="#0EABEB"/>
<path d="M21.6688 25.0812L20.05 26.7C19.7087 27.0412 19.1662 27.0412 18.8162 26.7087C18.72 26.6125 18.6238 26.525 18.5275 26.4287C17.6263 25.5187 16.8125 24.565 16.0863 23.5675C15.3688 22.57 14.7912 21.5725 14.3713 20.5837C13.96 19.5862 13.75 18.6325 13.75 17.7225C13.75 17.1275 13.855 16.5587 14.065 16.0338C14.275 15.5 14.6075 15.01 15.0712 14.5725C15.6313 14.0213 16.2438 13.75 16.8913 13.75C17.1363 13.75 17.3813 13.8025 17.6 13.9075C17.8275 14.0125 18.0287 14.17 18.1863 14.3975L20.2163 17.2587C20.3738 17.4775 20.4875 17.6787 20.5662 17.8712C20.645 18.055 20.6888 18.2387 20.6888 18.405C20.6888 18.615 20.6275 18.825 20.505 19.0262C20.3913 19.2275 20.225 19.4375 20.015 19.6475L19.35 20.3387C19.2537 20.435 19.21 20.5487 19.21 20.6887C19.21 20.7587 19.2188 20.82 19.2363 20.89C19.2625 20.96 19.2888 21.0125 19.3063 21.065C19.4638 21.3537 19.735 21.73 20.12 22.185C20.5137 22.64 20.9337 23.1037 21.3887 23.5675C21.4762 23.655 21.5725 23.7425 21.66 23.83C22.01 24.1712 22.0188 24.7312 21.6688 25.0812Z" fill="#0EABEB"/>
<path d="M31.2238 28.0389C31.2238 28.2839 31.18 28.5377 31.0925 28.7827C31.0663 28.8527 31.04 28.9227 31.005 28.9927C30.8563 29.3077 30.6638 29.6052 30.41 29.8852C29.9813 30.3577 29.5088 30.6989 28.975 30.9177C28.9663 30.9177 28.9575 30.9264 28.9488 30.9264C28.4325 31.1364 27.8725 31.2502 27.2688 31.2502C26.3763 31.2502 25.4225 31.0402 24.4163 30.6114C23.41 30.1827 22.4038 29.6052 21.4063 28.8789C21.065 28.6252 20.7238 28.3714 20.4 28.1002L23.2613 25.2389C23.5063 25.4227 23.725 25.5627 23.9088 25.6589C23.9525 25.6764 24.005 25.7027 24.0663 25.7289C24.1363 25.7552 24.2063 25.7639 24.285 25.7639C24.4338 25.7639 24.5475 25.7114 24.6438 25.6152L25.3088 24.9589C25.5275 24.7402 25.7375 24.5739 25.9388 24.4689C26.14 24.3464 26.3413 24.2852 26.56 24.2852C26.7263 24.2852 26.9013 24.3202 27.0938 24.3989C27.2863 24.4777 27.4875 24.5914 27.7063 24.7402L30.6025 26.7964C30.83 26.9539 30.9875 27.1377 31.0838 27.3564C31.1713 27.5752 31.2238 27.7939 31.2238 28.0389Z" fill="#0EABEB"/>
</svg>
