<svg width="45" height="45" viewBox="0 0 45 45" fill="none" xmlns="http://www.w3.org/2000/svg">
<rect width="45" height="45" rx="10" fill="white"/>
<path d="M30.0425 19.3937C29.1237 15.3512 25.5975 13.5312 22.5 13.5312C22.5 13.5312 22.5 13.5312 22.4912 13.5312C19.4025 13.5312 15.8675 15.3425 14.9487 19.385C13.925 23.9 16.69 27.7237 19.1925 30.13C20.12 31.0225 21.31 31.4688 22.5 31.4688C23.69 31.4688 24.88 31.0225 25.7987 30.13C28.3012 27.7237 31.0662 23.9087 30.0425 19.3937ZM22.5 23.7775C20.9775 23.7775 19.7437 22.5438 19.7437 21.0213C19.7437 19.4988 20.9775 18.265 22.5 18.265C24.0225 18.265 25.2562 19.4988 25.2562 21.0213C25.2562 22.5438 24.0225 23.7775 22.5 23.7775Z" fill="#0EABEB"/>
</svg>
