<svg width="45" height="45" viewBox="0 0 45 45" fill="none" xmlns="http://www.w3.org/2000/svg">
<rect width="45" height="45" rx="10" fill="white"/>
<path d="M18.3438 22.5C18.3438 22.1413 18.6413 21.8438 19 21.8438H21.625V18.5625C21.625 18.0812 21.2313 17.6875 20.75 17.6875H18.7988C16.0425 17.6875 13.645 19.945 13.75 22.6925C13.8025 23.9438 14.3275 25.0725 15.1588 25.9038C16.0338 26.77 17.2325 27.3125 18.5625 27.3125H20.75C21.2313 27.3125 21.625 26.9187 21.625 26.4375V23.1562H19C18.6413 23.1562 18.3438 22.8587 18.3438 22.5Z" fill="#0EABEB"/>
<path d="M29.8413 19.0962C28.9663 18.23 27.7675 17.6875 26.4375 17.6875H24.25C23.7688 17.6875 23.375 18.0812 23.375 18.5625V21.8438H26C26.3588 21.8438 26.6563 22.1413 26.6563 22.5C26.6563 22.8587 26.3588 23.1562 26 23.1562H23.375V26.4375C23.375 26.9187 23.7688 27.3125 24.25 27.3125H26.2013C28.9575 27.3125 31.355 25.055 31.2413 22.3075C31.1975 21.0562 30.6638 19.9275 29.8413 19.0962Z" fill="#0EABEB"/>
<path d="M23.375 21.8438H21.625V23.1562H23.375V21.8438Z" fill="#0EABEB"/>
</svg>
