<svg width="45" height="45" viewBox="0 0 45 45" fill="none" xmlns="http://www.w3.org/2000/svg">
<rect width="45" height="45" rx="10" fill="white"/>
<path d="M31.25 30.5938H13.75C13.3913 30.5938 13.0938 30.8913 13.0938 31.25C13.0938 31.6087 13.3913 31.9062 13.75 31.9062H31.25C31.6087 31.9062 31.9062 31.6087 31.9062 31.25C31.9062 30.8913 31.6087 30.5938 31.25 30.5938Z" fill="#0EABEB"/>
<path d="M26.875 13.75H18.125C15.5 13.75 14.625 15.3162 14.625 17.25V31.25H19.875V25.9475C19.875 25.4925 20.2425 25.125 20.6975 25.125H24.3113C24.7575 25.125 25.1338 25.4925 25.1338 25.9475V31.25H30.3838V17.25C30.375 15.3162 29.5 13.75 26.875 13.75ZM24.6875 20.0938H23.1563V21.625C23.1563 21.9838 22.8588 22.2812 22.5 22.2812C22.1413 22.2812 21.8438 21.9838 21.8438 21.625V20.0938H20.3125C19.9538 20.0938 19.6563 19.7962 19.6563 19.4375C19.6563 19.0788 19.9538 18.7812 20.3125 18.7812H21.8438V17.25C21.8438 16.8912 22.1413 16.5938 22.5 16.5938C22.8588 16.5938 23.1563 16.8912 23.1563 17.25V18.7812H24.6875C25.0463 18.7812 25.3438 19.0788 25.3438 19.4375C25.3438 19.7962 25.0463 20.0938 24.6875 20.0938Z" fill="#0EABEB"/>
</svg>
