<svg
      width="12"
      height="18"
      viewBox="0 0 12 18"
      fill="none"
      xmlns="http://www.w3.org/2000/svg"
    >
      <path
        d="M11.8332 6.0013C11.8332 2.7763 9.22484 0.167969 5.99984 0.167969C2.77484 0.167969 0.166504 2.7763 0.166504 6.0013C0.166504 9.01797 2.44984 11.493 5.37484 11.8013V13.7096H3.49984C3.15817 13.7096 2.87484 13.993 2.87484 14.3346C2.87484 14.6763 3.15817 14.9596 3.49984 14.9596H5.37484V16.8346C5.37484 17.1763 5.65817 17.4596 5.99984 17.4596C6.3415 17.4596 6.62484 17.1763 6.62484 16.8346V14.9596H8.49984C8.8415 14.9596 9.12484 14.6763 9.12484 14.3346C9.12484 13.993 8.8415 13.7096 8.49984 13.7096H6.62484V11.8013C9.54984 11.493 11.8332 9.01797 11.8332 6.0013Z"
        fill="white"
      />
    </svg>