<svg width="216" height="76" viewBox="0 0 216 76" fill="none" xmlns="http://www.w3.org/2000/svg">
<path d="M56.2564 50.4812H32.3276V47.2989C32.3276 44.6183 34.4974 42.4453 37.1739 42.4453H61.1027V45.6276C61.1029 48.3081 58.933 50.4812 56.2564 50.4812Z" fill="#0EABEB"/>
<path d="M42.7046 60.8732V36.9083C42.7046 34.2277 44.8743 32.0547 47.5509 32.0547H50.7285V56.0194C50.7285 58.7001 48.5587 60.873 45.8822 60.873L42.7046 60.8732Z" fill="#0EABEB"/>
<path d="M30.8309 58.4292C27.9923 56.8278 25.2817 54.9596 22.8069 52.7662C21.564 51.6754 20.4081 50.4771 19.3273 49.2029C18.2513 47.925 17.2606 46.5579 16.405 45.0958L15.7975 43.9786L15.2533 42.8467C14.9095 42.0656 14.5791 41.2297 14.3201 40.4258C13.7889 38.7941 13.4256 37.1 13.2524 35.3733C12.9278 31.9277 13.3916 28.3156 14.9018 25.0363L15.5154 23.8309L16.2282 22.6752L16.2731 22.603L16.3576 22.4875L16.4476 22.3643L16.6274 22.1178L16.9871 21.6247C17.2957 21.2644 17.6079 20.8908 17.9256 20.5479C19.1725 19.23 20.6149 18.1132 22.1735 17.2146C23.7314 16.3119 25.4143 15.6447 27.1498 15.1902C28.887 14.7404 30.6848 14.5051 32.4924 14.5246C32.9441 14.5318 33.3961 14.5645 33.848 14.5856L35.1303 14.7294C35.5906 14.8087 36.067 14.8803 36.5136 14.9741C36.9485 15.0796 37.3902 15.1652 37.8195 15.2905C39.5464 15.7625 41.2078 16.4408 42.7664 17.2921C45.8842 18.9933 48.629 21.3292 50.794 24.1318L47.6669 23.9026C48.8673 22.7691 50.1873 21.7762 51.5928 20.9333C52.9985 20.092 54.491 19.3957 56.0491 18.892C59.1552 17.8832 62.5038 17.483 65.784 18.0046C66.1952 18.0463 66.5987 18.1541 67.005 18.2324C67.4126 18.307 67.8128 18.4178 68.2107 18.5382L68.8083 18.7123L68.8829 18.7342L68.9203 18.7452L69.0307 18.7835L69.1609 18.8333L69.4216 18.9327L69.9429 19.1314L70.203 19.2322L70.4992 19.3697C70.8935 19.5584 71.3002 19.7441 71.6786 19.9438L72.7517 20.5723C73.4414 21.0285 74.1226 21.497 74.7475 22.0338C77.2828 24.1324 79.2366 26.9007 80.33 30.002C80.8781 31.5501 81.2091 33.1818 81.2795 34.832L81.2683 36.0704L81.2661 36.2248L81.2594 36.3433L81.2531 36.4129L81.227 36.6912L81.169 37.2497C81.0459 38.1076 80.8946 38.9035 80.6677 39.6748C80.2274 41.2264 79.5964 42.7027 78.805 44.065C78.0151 45.4281 77.1035 46.7043 76.0691 47.8598C73.9923 50.1684 71.5711 52.0667 69.0081 53.6525C66.4523 55.2542 63.7812 56.5921 61.0944 57.8872C63.5571 56.2023 66.0476 54.559 68.3588 52.728C70.6603 50.8964 72.8204 48.9021 74.5151 46.5917C75.3532 45.4328 76.1133 44.2287 76.7198 42.9608C77.3347 41.698 77.7821 40.3725 78.0571 39.0333C78.204 38.3618 78.2724 37.681 78.3227 37.0601L78.3392 36.504L78.3492 36.2248L78.3518 36.155L78.3532 36.1202C78.3555 36.0731 78.351 36.1646 78.351 36.1497L78.3502 36.1341L78.3441 36.0094L78.3009 35.0136C78.1708 33.6888 77.8331 32.3865 77.3208 31.1538C76.8062 29.9225 76.1294 28.7526 75.2992 27.7006C74.4628 26.6538 73.5043 25.7094 72.4552 24.8932C71.9354 24.4769 71.3717 24.1257 70.8092 23.7796L69.9377 23.3125L69.0973 22.9387L68.8859 22.8446L68.6222 22.7535L68.0957 22.5689L67.8325 22.4767L67.7008 22.4304L67.6843 22.4247C67.6103 22.3992 67.7667 22.4529 67.7452 22.4462L67.7154 22.4385L67.6556 22.4232L67.1781 22.3C66.8614 22.2124 66.5431 22.1314 66.216 22.0837C65.8904 22.0324 65.5714 21.9494 65.2402 21.9287C62.6198 21.5907 59.9056 21.961 57.3774 22.821C56.1077 23.2485 54.9024 23.8534 53.7572 24.5385C52.6154 25.232 51.5488 26.0441 50.5877 26.9592L48.9054 28.5616L47.4604 26.73C45.6247 24.4029 43.3373 22.4106 40.7514 20.9884C39.4587 20.2799 38.0996 19.7034 36.6983 19.2922C36.3495 19.1824 35.9922 19.1111 35.6397 19.0169C35.2926 18.9382 34.9651 18.8865 34.627 18.815L33.4896 18.6669C33.1303 18.6474 32.7718 18.6132 32.4115 18.6011C29.526 18.5104 26.583 19.1887 24.0182 20.5481C22.7346 21.2245 21.5468 22.0757 20.5179 23.0829L19.8189 23.8138L19.0987 24.7034L18.4814 25.5933L17.9368 26.536C17.2572 27.8239 16.768 29.2299 16.4676 30.6909C16.1641 32.1524 16.0588 33.6674 16.1036 35.1866C16.1437 36.7071 16.3535 38.2351 16.7215 39.7303C16.9083 40.4921 17.1264 41.1892 17.3822 41.9206L17.8156 43.0245L18.2977 44.0912C18.9686 45.5035 19.7641 46.8692 20.6698 48.1703C21.5709 49.4758 22.591 50.7051 23.6609 51.9C25.8159 54.279 28.2652 56.419 30.8309 58.4292Z" fill="#0EABEB"/>
<path d="M113.034 22.5292V43.5195H109.115V34.3453H99.2584V43.5195H95.3391V22.5292H99.2584V31.5582H109.115V22.5292H113.034ZM123.279 28.3937C124.382 28.3937 125.384 28.5728 126.284 28.9308C127.194 29.2889 127.968 29.7969 128.607 30.455C129.255 31.1131 129.753 31.9163 130.102 32.8647C130.45 33.8131 130.624 34.8728 130.624 36.0437C130.624 37.2244 130.45 38.2889 130.102 39.2373C129.753 40.1857 129.255 40.9937 128.607 41.6615C127.968 42.3292 127.194 42.8421 126.284 43.2002C125.384 43.5582 124.382 43.7373 123.279 43.7373C122.166 43.7373 121.155 43.5582 120.245 43.2002C119.336 42.8421 118.557 42.3292 117.908 41.6615C117.27 40.9937 116.771 40.1857 116.413 39.2373C116.065 38.2889 115.89 37.2244 115.89 36.0437C115.89 34.8728 116.065 33.8131 116.413 32.8647C116.771 31.9163 117.27 31.1131 117.908 30.455C118.557 29.7969 119.336 29.2889 120.245 28.9308C121.155 28.5728 122.166 28.3937 123.279 28.3937ZM123.279 40.9792C124.518 40.9792 125.432 40.5631 126.023 39.7308C126.623 38.8986 126.923 37.6792 126.923 36.0728C126.923 34.4663 126.623 33.2421 126.023 32.4002C125.432 31.5582 124.518 31.1373 123.279 31.1373C122.021 31.1373 121.087 31.5631 120.478 32.4147C119.878 33.2566 119.578 34.476 119.578 36.0728C119.578 37.6695 119.878 38.8889 120.478 39.7308C121.087 40.5631 122.021 40.9792 123.279 40.9792ZM142.447 31.5292C142.35 31.684 142.248 31.7953 142.142 31.8631C142.036 31.9211 141.9 31.9502 141.736 31.9502C141.561 31.9502 141.373 31.9018 141.169 31.805C140.976 31.7082 140.748 31.6018 140.487 31.4857C140.226 31.3599 139.926 31.2486 139.587 31.1518C139.258 31.055 138.866 31.0066 138.411 31.0066C137.705 31.0066 137.148 31.1566 136.742 31.4566C136.345 31.7566 136.147 32.1486 136.147 32.6324C136.147 32.9518 136.248 33.2228 136.452 33.4453C136.665 33.6582 136.94 33.8469 137.279 34.0115C137.627 34.176 138.019 34.326 138.455 34.4615C138.89 34.5873 139.331 34.7276 139.776 34.8824C140.231 35.0373 140.676 35.2163 141.111 35.4195C141.547 35.6131 141.934 35.8647 142.273 36.1744C142.621 36.4744 142.897 36.8373 143.1 37.2631C143.313 37.6889 143.419 38.2018 143.419 38.8018C143.419 39.5179 143.289 40.1808 143.027 40.7905C142.776 41.3905 142.398 41.9131 141.895 42.3582C141.392 42.7937 140.768 43.1373 140.023 43.3889C139.287 43.6308 138.436 43.7518 137.468 43.7518C136.955 43.7518 136.452 43.7034 135.958 43.6066C135.474 43.5195 135.005 43.3937 134.55 43.2292C134.105 43.0647 133.689 42.8711 133.302 42.6486C132.924 42.426 132.59 42.184 132.3 41.9228L133.127 40.5582C133.234 40.3937 133.36 40.2679 133.505 40.1808C133.65 40.0937 133.834 40.0502 134.057 40.0502C134.279 40.0502 134.487 40.1131 134.681 40.2389C134.884 40.3647 135.116 40.5002 135.377 40.6453C135.639 40.7905 135.944 40.926 136.292 41.0518C136.65 41.1776 137.1 41.2405 137.642 41.2405C138.068 41.2405 138.431 41.1921 138.731 41.0953C139.04 40.9889 139.292 40.8534 139.486 40.6889C139.689 40.5244 139.834 40.3357 139.921 40.1228C140.018 39.9002 140.066 39.6728 140.066 39.4405C140.066 39.0921 139.96 38.8066 139.747 38.584C139.544 38.3615 139.268 38.1679 138.919 38.0034C138.581 37.8389 138.189 37.6937 137.744 37.5679C137.308 37.4324 136.858 37.2873 136.394 37.1324C135.939 36.9776 135.489 36.7986 135.044 36.5953C134.608 36.3824 134.216 36.1163 133.868 35.797C133.529 35.4776 133.253 35.0857 133.04 34.6211C132.837 34.1566 132.736 33.5953 132.736 32.9373C132.736 32.3276 132.857 31.7469 133.098 31.1953C133.34 30.6437 133.694 30.1647 134.158 29.7582C134.632 29.3421 135.218 29.0131 135.915 28.7711C136.621 28.5195 137.434 28.3937 138.353 28.3937C139.379 28.3937 140.313 28.5631 141.155 28.9018C141.997 29.2405 142.698 29.6857 143.26 30.2373L142.447 31.5292ZM149.704 39.6582C150.11 40.1518 150.55 40.5002 151.025 40.7034C151.508 40.9066 152.031 41.0082 152.592 41.0082C153.134 41.0082 153.623 40.9066 154.058 40.7034C154.494 40.5002 154.862 40.1905 155.162 39.7744C155.471 39.3582 155.708 38.8357 155.873 38.2066C156.037 37.5679 156.12 36.8179 156.12 35.9566C156.12 35.0857 156.047 34.3502 155.902 33.7502C155.766 33.1405 155.568 32.6469 155.307 32.2695C155.045 31.8921 154.726 31.6163 154.349 31.4421C153.981 31.2679 153.56 31.1808 153.086 31.1808C152.341 31.1808 151.707 31.3405 151.184 31.6599C150.662 31.9695 150.168 32.4099 149.704 32.9808V39.6582ZM149.515 30.6582C150.125 29.9711 150.816 29.4147 151.591 28.9889C152.365 28.5631 153.275 28.3502 154.32 28.3502C155.133 28.3502 155.873 28.5195 156.541 28.8582C157.218 29.1969 157.799 29.6905 158.283 30.3389C158.776 30.9776 159.154 31.7711 159.415 32.7195C159.686 33.6582 159.821 34.7373 159.821 35.9566C159.821 37.0695 159.671 38.1002 159.371 39.0486C159.071 39.997 158.641 40.8195 158.079 41.5163C157.528 42.2131 156.855 42.7599 156.062 43.1566C155.278 43.5437 154.397 43.7373 153.42 43.7373C152.587 43.7373 151.876 43.6115 151.286 43.3599C150.695 43.0986 150.168 42.7405 149.704 42.2857V48.3824H146.118V28.626H148.31C148.775 28.626 149.079 28.8437 149.225 29.2792L149.515 30.6582ZM166.335 28.626V43.5195H162.735V28.626H166.335ZM166.828 24.2857C166.828 24.5953 166.766 24.8857 166.64 25.1566C166.514 25.4276 166.345 25.6647 166.132 25.8679C165.928 26.0711 165.687 26.2357 165.406 26.3615C165.125 26.4776 164.825 26.5357 164.506 26.5357C164.196 26.5357 163.901 26.4776 163.62 26.3615C163.349 26.2357 163.112 26.0711 162.909 25.8679C162.706 25.6647 162.541 25.4276 162.416 25.1566C162.299 24.8857 162.241 24.5953 162.241 24.2857C162.241 23.9663 162.299 23.6663 162.416 23.3857C162.541 23.105 162.706 22.8631 162.909 22.6599C163.112 22.4566 163.349 22.2969 163.62 22.1808C163.901 22.055 164.196 21.9921 164.506 21.9921C164.825 21.9921 165.125 22.055 165.406 22.1808C165.687 22.2969 165.928 22.4566 166.132 22.6599C166.345 22.8631 166.514 23.105 166.64 23.3857C166.766 23.6663 166.828 23.9663 166.828 24.2857ZM174.955 43.7518C173.658 43.7518 172.661 43.3889 171.964 42.6631C171.277 41.9276 170.934 40.9163 170.934 39.6292V31.3115H169.41C169.216 31.3115 169.052 31.2486 168.916 31.1228C168.781 30.9969 168.713 30.8082 168.713 30.5566V29.134L171.108 28.7421L171.863 24.6776C171.911 24.484 172.003 24.334 172.139 24.2276C172.274 24.1211 172.448 24.0679 172.661 24.0679H174.519V28.7566H178.497V31.3115H174.519V39.3824C174.519 39.847 174.631 40.2099 174.853 40.4711C175.085 40.7324 175.4 40.8631 175.797 40.8631C176.019 40.8631 176.203 40.8389 176.348 40.7905C176.503 40.7324 176.634 40.6744 176.74 40.6163C176.856 40.5582 176.958 40.505 177.045 40.4566C177.132 40.3986 177.219 40.3695 177.306 40.3695C177.413 40.3695 177.5 40.3986 177.568 40.4566C177.635 40.505 177.708 40.5824 177.785 40.6889L178.86 42.4308C178.337 42.8663 177.737 43.1953 177.06 43.4179C176.382 43.6405 175.681 43.7518 174.955 43.7518ZM188.66 37.1615C187.625 37.2099 186.754 37.3018 186.047 37.4373C185.341 37.5631 184.775 37.7276 184.349 37.9308C183.923 38.134 183.618 38.3711 183.434 38.6421C183.25 38.9131 183.158 39.2082 183.158 39.5276C183.158 40.1566 183.342 40.6066 183.71 40.8776C184.087 41.1486 184.576 41.284 185.176 41.284C185.912 41.284 186.546 41.1534 187.078 40.8921C187.62 40.6211 188.147 40.2147 188.66 39.6728V37.1615ZM180.444 30.7018C182.157 29.134 184.218 28.3502 186.628 28.3502C187.499 28.3502 188.278 28.4953 188.965 28.7857C189.652 29.0663 190.233 29.4631 190.707 29.976C191.181 30.4792 191.539 31.084 191.781 31.7905C192.033 32.4969 192.158 33.2711 192.158 34.1131V43.5195H190.533C190.194 43.5195 189.933 43.4711 189.749 43.3744C189.565 43.2679 189.42 43.0599 189.313 42.7502L188.994 41.676C188.617 42.0147 188.249 42.3147 187.891 42.576C187.533 42.8276 187.16 43.0405 186.773 43.2147C186.386 43.3889 185.97 43.5195 185.525 43.6066C185.089 43.7034 184.605 43.7518 184.073 43.7518C183.444 43.7518 182.863 43.6695 182.331 43.505C181.799 43.3308 181.339 43.0744 180.952 42.7357C180.565 42.397 180.265 41.976 180.052 41.4728C179.839 40.9695 179.733 40.384 179.733 39.7163C179.733 39.3389 179.796 38.9663 179.921 38.5986C180.047 38.2211 180.25 37.8631 180.531 37.5244C180.821 37.1857 181.194 36.8663 181.649 36.5663C182.104 36.2663 182.66 36.005 183.318 35.7824C183.986 35.5599 184.76 35.3808 185.641 35.2453C186.521 35.1002 187.528 35.0131 188.66 34.984V34.1131C188.66 33.1163 188.447 32.3808 188.021 31.9066C187.596 31.4228 186.981 31.1808 186.178 31.1808C185.597 31.1808 185.113 31.2486 184.726 31.384C184.349 31.5195 184.015 31.6744 183.725 31.8486C183.434 32.0131 183.168 32.1631 182.926 32.2986C182.694 32.434 182.433 32.5018 182.142 32.5018C181.891 32.5018 181.678 32.4389 181.504 32.3131C181.329 32.1776 181.189 32.0228 181.083 31.8486L180.444 30.7018ZM199.164 21.9486V43.5195H195.579V21.9486H199.164Z" fill="#0EABEB"/>
<path d="M95.2171 59.6008C94.875 59.6008 94.6074 59.506 94.4144 59.3163C94.2247 59.1266 94.1299 58.8336 94.1299 58.4374V54.9825H93.4033C93.3661 54.9825 93.3356 54.9724 93.3119 54.952C93.2882 54.9317 93.2763 54.9029 93.2763 54.8657V54.6777L94.14 54.6167L94.262 52.808C94.2687 52.7775 94.2823 52.7504 94.3026 52.7267C94.3229 52.703 94.3517 52.6911 94.389 52.6911H94.6176V54.6218H96.2129V54.9825H94.6176V58.412C94.6176 58.5508 94.6345 58.6711 94.6684 58.7727C94.7057 58.8709 94.7548 58.9522 94.8157 59.0165C94.8801 59.0809 94.9546 59.1283 95.0393 59.1588C95.124 59.1893 95.2154 59.2045 95.3136 59.2045C95.4356 59.2045 95.5406 59.1876 95.6286 59.1537C95.7167 59.1165 95.7929 59.0775 95.8573 59.0369C95.9216 58.9928 95.9741 58.9539 96.0148 58.92C96.0554 58.8828 96.0876 58.8641 96.1113 58.8641C96.1384 58.8641 96.1655 58.8811 96.1926 58.9149L96.3247 59.1283C96.196 59.2706 96.0317 59.3857 95.8319 59.4738C95.6354 59.5585 95.4305 59.6008 95.2171 59.6008ZM100.148 57.0757C99.6672 57.0927 99.2522 57.1316 98.9034 57.1926C98.5579 57.2502 98.2717 57.3298 98.0447 57.4314C97.8212 57.533 97.6552 57.6549 97.5468 57.7972C97.4384 57.9361 97.3842 58.0953 97.3842 58.2748C97.3842 58.4441 97.4113 58.5915 97.4655 58.7168C97.5231 58.8387 97.5976 58.9403 97.6891 59.0216C97.7839 59.0995 97.8923 59.1571 98.0142 59.1944C98.1362 59.2316 98.2632 59.2503 98.3953 59.2503C98.5917 59.2503 98.7713 59.2299 98.9338 59.1893C99.0998 59.1453 99.2522 59.086 99.3911 59.0115C99.5334 58.9336 99.6655 58.8421 99.7874 58.7371C99.9093 58.6321 100.03 58.5186 100.148 58.3967V57.0757ZM97.1759 55.1807C97.4401 54.9165 97.7179 54.7166 98.0092 54.5811C98.3005 54.4457 98.6307 54.3779 98.9999 54.3779C99.2709 54.3779 99.508 54.422 99.7112 54.51C99.9144 54.5947 100.082 54.7183 100.214 54.8809C100.35 55.0401 100.451 55.2349 100.519 55.4652C100.587 55.6921 100.621 55.9461 100.621 56.2273V59.5195H100.428C100.326 59.5195 100.263 59.4721 100.24 59.3773L100.168 58.727C100.03 58.8624 99.8907 58.9844 99.7518 59.0928C99.6163 59.2011 99.4741 59.2926 99.3251 59.3671C99.176 59.4416 99.0151 59.4992 98.8424 59.5399C98.6697 59.5805 98.48 59.6008 98.2734 59.6008C98.1006 59.6008 97.933 59.5754 97.7704 59.5246C97.6078 59.4738 97.4622 59.3959 97.3334 59.2909C97.2081 59.1859 97.1065 59.0521 97.0286 58.8895C96.9541 58.7236 96.9168 58.5254 96.9168 58.2951C96.9168 58.0817 96.9778 57.8836 97.0997 57.7007C97.2217 57.5178 97.413 57.3586 97.6738 57.2231C97.9347 57.0876 98.2683 56.9792 98.6747 56.8979C99.0846 56.8166 99.5757 56.7692 100.148 56.7557V56.2273C100.148 55.7599 100.047 55.4008 99.8433 55.1502C99.6434 54.8961 99.3454 54.7691 98.9491 54.7691C98.7052 54.7691 98.4969 54.803 98.3242 54.8707C98.1548 54.9385 98.0109 55.013 97.8923 55.0943C97.7738 55.1756 97.6772 55.2501 97.6027 55.3178C97.5282 55.3856 97.4655 55.4195 97.4147 55.4195C97.3775 55.4195 97.347 55.411 97.3233 55.394C97.2996 55.3771 97.2792 55.3551 97.2623 55.328L97.1759 55.1807ZM103.891 57.284C104.108 57.284 104.301 57.2536 104.47 57.1926C104.64 57.1282 104.782 57.0402 104.897 56.9284C105.012 56.8166 105.1 56.6828 105.161 56.527C105.222 56.3712 105.253 56.1985 105.253 56.0088C105.253 55.8191 105.221 55.6464 105.156 55.4906C105.095 55.3314 105.006 55.1959 104.887 55.0841C104.772 54.9724 104.63 54.886 104.46 54.825C104.294 54.764 104.105 54.7336 103.891 54.7336C103.678 54.7336 103.487 54.764 103.317 54.825C103.151 54.886 103.009 54.9724 102.89 55.0841C102.775 55.1959 102.687 55.3314 102.626 55.4906C102.565 55.6464 102.535 55.8191 102.535 56.0088C102.535 56.1985 102.565 56.3712 102.626 56.527C102.687 56.6828 102.775 56.8166 102.89 56.9284C103.009 57.0402 103.151 57.1282 103.317 57.1926C103.487 57.2536 103.678 57.284 103.891 57.284ZM105.781 59.8599C105.781 59.7007 105.739 59.5737 105.654 59.4789C105.573 59.3807 105.463 59.3045 105.324 59.2503C105.185 59.1961 105.024 59.1588 104.841 59.1385C104.662 59.1148 104.472 59.0978 104.272 59.0877C104.076 59.0775 103.878 59.0674 103.678 59.0572C103.478 59.047 103.29 59.0267 103.114 58.9962C102.985 59.047 102.867 59.1063 102.758 59.174C102.65 59.2384 102.557 59.3129 102.479 59.3976C102.401 59.4823 102.34 59.5737 102.296 59.672C102.252 59.7736 102.23 59.882 102.23 59.9971C102.23 60.1461 102.267 60.2833 102.342 60.4086C102.42 60.5374 102.531 60.6474 102.677 60.7389C102.826 60.8337 103.007 60.9082 103.221 60.9624C103.434 61.0166 103.68 61.0437 103.957 61.0437C104.215 61.0437 104.454 61.0149 104.674 60.9574C104.897 60.8998 105.09 60.8185 105.253 60.7135C105.419 60.6085 105.548 60.4832 105.639 60.3375C105.734 60.1919 105.781 60.0327 105.781 59.8599ZM106.31 54.6878V54.8555C106.31 54.93 106.262 54.9757 106.167 54.9927L105.395 55.0486C105.49 55.1773 105.563 55.3212 105.614 55.4804C105.664 55.6396 105.69 55.8124 105.69 55.9986C105.69 56.2425 105.646 56.4644 105.558 56.6642C105.473 56.8607 105.351 57.03 105.192 57.1723C105.036 57.3111 104.846 57.4195 104.623 57.4974C104.403 57.5753 104.159 57.6143 103.891 57.6143C103.603 57.6143 103.341 57.5703 103.104 57.4822C102.962 57.5635 102.848 57.66 102.763 57.7718C102.682 57.8802 102.641 57.9886 102.641 58.097C102.641 58.2426 102.692 58.3544 102.794 58.4323C102.899 58.5102 103.034 58.5678 103.2 58.605C103.37 58.6389 103.561 58.6609 103.774 58.6711C103.991 58.6812 104.211 58.6931 104.435 58.7066C104.658 58.7168 104.877 58.7371 105.09 58.7676C105.307 58.7981 105.498 58.8523 105.664 58.9302C105.834 59.0047 105.969 59.1114 106.071 59.2503C106.176 59.3857 106.228 59.567 106.228 59.7939C106.228 60.0039 106.176 60.2054 106.071 60.3985C105.966 60.5915 105.813 60.7626 105.614 60.9116C105.417 61.0607 105.178 61.1792 104.897 61.2673C104.616 61.3587 104.301 61.4045 103.952 61.4045C103.597 61.4045 103.285 61.3672 103.017 61.2927C102.75 61.2215 102.525 61.1233 102.342 60.998C102.162 60.8761 102.027 60.7338 101.935 60.5712C101.844 60.4086 101.798 60.2359 101.798 60.053C101.798 59.7854 101.886 59.5568 102.062 59.3671C102.238 59.174 102.479 59.0233 102.784 58.9149C102.614 58.8574 102.477 58.7744 102.372 58.666C102.271 58.5542 102.22 58.4035 102.22 58.2138C102.22 58.1427 102.233 58.0682 102.26 57.9903C102.287 57.9124 102.328 57.8361 102.382 57.7616C102.437 57.6837 102.503 57.6109 102.58 57.5432C102.658 57.4754 102.746 57.4145 102.845 57.3603C102.604 57.2214 102.416 57.0368 102.281 56.8065C102.149 56.5761 102.083 56.3069 102.083 55.9986C102.083 55.7548 102.125 55.5346 102.21 55.3382C102.298 55.1383 102.421 54.9673 102.58 54.825C102.74 54.6828 102.929 54.5727 103.15 54.4948C103.373 54.4169 103.62 54.3779 103.891 54.3779C104.115 54.3779 104.32 54.405 104.506 54.4592C104.696 54.5134 104.865 54.5896 105.014 54.6878H106.31ZM107.963 52.1272V59.5195H107.476V52.1272H107.963ZM110.211 54.4643V59.5195H109.728V54.4643H110.211ZM110.419 52.7216C110.419 52.7826 110.406 52.8402 110.379 52.8944C110.355 52.9452 110.323 52.9909 110.282 53.0315C110.242 53.0722 110.194 53.1044 110.14 53.1281C110.086 53.1518 110.028 53.1636 109.967 53.1636C109.906 53.1636 109.849 53.1518 109.794 53.1281C109.74 53.1044 109.693 53.0722 109.652 53.0315C109.612 52.9909 109.579 52.9452 109.556 52.8944C109.532 52.8402 109.52 52.7826 109.52 52.7216C109.52 52.6607 109.532 52.6031 109.556 52.5489C109.579 52.4913 109.612 52.4422 109.652 52.4015C109.693 52.3609 109.74 52.3287 109.794 52.305C109.849 52.2813 109.906 52.2695 109.967 52.2695C110.028 52.2695 110.086 52.2813 110.14 52.305C110.194 52.3287 110.242 52.3609 110.282 52.4015C110.323 52.4422 110.355 52.4913 110.379 52.5489C110.406 52.6031 110.419 52.6607 110.419 52.7216ZM112.397 55.3483C112.631 55.057 112.9 54.8233 113.205 54.6472C113.513 54.4711 113.855 54.383 114.231 54.383C114.509 54.383 114.753 54.427 114.963 54.5151C115.176 54.6032 115.353 54.7302 115.491 54.8961C115.63 55.0621 115.735 55.262 115.806 55.4957C115.878 55.7294 115.913 55.9936 115.913 56.2882V59.5195H115.425V56.2882C115.425 55.814 115.317 55.4432 115.1 55.1756C114.883 54.9046 114.553 54.7691 114.109 54.7691C113.781 54.7691 113.473 54.8538 113.185 55.0232C112.9 55.1891 112.646 55.4211 112.423 55.7192V59.5195H111.935V54.4643H112.204C112.289 54.4643 112.338 54.5066 112.352 54.5913L112.397 55.3483ZM121.068 56.4813C121.068 56.2103 121.029 55.9682 120.951 55.7548C120.877 55.538 120.77 55.3551 120.631 55.2061C120.492 55.057 120.326 54.9436 120.133 54.8657C119.943 54.7844 119.733 54.7437 119.503 54.7437C119.242 54.7437 119.009 54.7844 118.802 54.8657C118.595 54.947 118.416 55.0638 118.263 55.2162C118.114 55.3686 117.994 55.5515 117.903 55.7649C117.811 55.9783 117.75 56.2171 117.72 56.4813H121.068ZM117.694 56.7912V56.8878C117.694 57.2671 117.738 57.6007 117.827 57.8886C117.915 58.1765 118.04 58.4187 118.203 58.6152C118.365 58.8082 118.562 58.9539 118.792 59.0521C119.022 59.1503 119.28 59.1995 119.564 59.1995C119.818 59.1995 120.038 59.1724 120.225 59.1182C120.411 59.0606 120.567 58.9979 120.692 58.9302C120.821 58.859 120.922 58.7964 120.997 58.7422C121.071 58.6846 121.126 58.6558 121.159 58.6558C121.203 58.6558 121.237 58.6728 121.261 58.7066L121.393 58.8692C121.312 58.9708 121.203 59.0657 121.068 59.1537C120.936 59.2418 120.787 59.318 120.621 59.3824C120.458 59.4433 120.282 59.4924 120.093 59.5297C119.906 59.567 119.718 59.5856 119.529 59.5856C119.183 59.5856 118.868 59.5263 118.584 59.4078C118.299 59.2858 118.055 59.1097 117.852 58.8794C117.649 58.649 117.491 58.3679 117.379 58.036C117.271 57.7007 117.217 57.3179 117.217 56.8878C117.217 56.5253 117.268 56.1917 117.369 55.8869C117.474 55.5786 117.623 55.3145 117.816 55.0943C118.013 54.8707 118.252 54.6963 118.533 54.571C118.817 54.4457 119.139 54.383 119.498 54.383C119.783 54.383 120.047 54.4321 120.291 54.5303C120.535 54.6286 120.746 54.7725 120.926 54.9622C121.105 55.1485 121.246 55.3788 121.347 55.6532C121.452 55.9275 121.505 56.2425 121.505 56.5982C121.505 56.6727 121.495 56.7235 121.474 56.7506C121.454 56.7777 121.42 56.7912 121.373 56.7912H117.694ZM126.067 55.3178C126.301 55.0333 126.567 54.8064 126.865 54.637C127.166 54.4677 127.503 54.383 127.876 54.383C128.153 54.383 128.397 54.427 128.607 54.5151C128.821 54.6032 128.997 54.7302 129.136 54.8961C129.275 55.0621 129.38 55.262 129.451 55.4957C129.522 55.7294 129.557 55.9936 129.557 56.2882V59.5195H129.07V56.2882C129.07 55.814 128.961 55.4432 128.745 55.1756C128.528 54.9046 128.198 54.7691 127.754 54.7691C127.425 54.7691 127.117 54.8538 126.829 55.0232C126.545 55.1891 126.291 55.4211 126.067 55.7192V59.5195H125.579V52.1272H126.067V55.3178ZM134.712 56.4813C134.712 56.2103 134.673 55.9682 134.595 55.7548C134.521 55.538 134.414 55.3551 134.275 55.2061C134.136 55.057 133.971 54.9436 133.777 54.8657C133.588 54.7844 133.378 54.7437 133.147 54.7437C132.887 54.7437 132.653 54.7844 132.446 54.8657C132.24 54.947 132.06 55.0638 131.908 55.2162C131.759 55.3686 131.639 55.5515 131.547 55.7649C131.456 55.9783 131.395 56.2171 131.364 56.4813H134.712ZM131.339 56.7912V56.8878C131.339 57.2671 131.383 57.6007 131.471 57.8886C131.559 58.1765 131.684 58.4187 131.847 58.6152C132.009 58.8082 132.206 58.9539 132.436 59.0521C132.666 59.1503 132.924 59.1995 133.208 59.1995C133.462 59.1995 133.683 59.1724 133.869 59.1182C134.055 59.0606 134.211 58.9979 134.336 58.9302C134.465 58.859 134.567 58.7964 134.641 58.7422C134.716 58.6846 134.77 58.6558 134.804 58.6558C134.848 58.6558 134.882 58.6728 134.905 58.7066L135.037 58.8692C134.956 58.9708 134.848 59.0657 134.712 59.1537C134.58 59.2418 134.431 59.318 134.265 59.3824C134.103 59.4433 133.926 59.4924 133.737 59.5297C133.551 59.567 133.363 59.5856 133.173 59.5856C132.827 59.5856 132.512 59.5263 132.228 59.4078C131.943 59.2858 131.699 59.1097 131.496 58.8794C131.293 58.649 131.136 58.3679 131.024 58.036C130.915 57.7007 130.861 57.3179 130.861 56.8878C130.861 56.5253 130.912 56.1917 131.014 55.8869C131.119 55.5786 131.268 55.3145 131.461 55.0943C131.657 54.8707 131.896 54.6963 132.177 54.571C132.462 54.4457 132.783 54.383 133.142 54.383C133.427 54.383 133.691 54.4321 133.935 54.5303C134.179 54.6286 134.391 54.7725 134.57 54.9622C134.75 55.1485 134.89 55.3788 134.992 55.6532C135.097 55.9275 135.149 56.2425 135.149 56.5982C135.149 56.6727 135.139 56.7235 135.119 56.7506C135.098 56.7777 135.065 56.7912 135.017 56.7912H131.339ZM136.927 55.6836C137.005 55.477 137.093 55.2941 137.191 55.1349C137.293 54.9724 137.408 54.8352 137.537 54.7234C137.669 54.6116 137.815 54.527 137.974 54.4694C138.136 54.4084 138.316 54.3779 138.512 54.3779C138.617 54.3779 138.721 54.3881 138.822 54.4084C138.924 54.4253 139.014 54.4575 139.092 54.5049L139.051 54.8403C139.034 54.8945 139.002 54.9215 138.954 54.9215C138.914 54.9215 138.851 54.9097 138.766 54.886C138.685 54.8623 138.577 54.8504 138.441 54.8504C138.245 54.8504 138.07 54.8809 137.918 54.9419C137.769 54.9995 137.634 55.0875 137.512 55.2061C137.393 55.3246 137.288 55.472 137.197 55.6481C137.109 55.8208 137.027 56.0207 136.953 56.2476V59.5195H136.465V54.4643H136.724C136.782 54.4643 136.822 54.4761 136.846 54.4999C136.87 54.5236 136.885 54.5642 136.892 54.6218L136.927 55.6836ZM143.316 56.4813C143.316 56.2103 143.277 55.9682 143.199 55.7548C143.124 55.538 143.018 55.3551 142.879 55.2061C142.74 55.057 142.574 54.9436 142.381 54.8657C142.191 54.7844 141.981 54.7437 141.751 54.7437C141.49 54.7437 141.256 54.7844 141.05 54.8657C140.843 54.947 140.664 55.0638 140.511 55.2162C140.362 55.3686 140.242 55.5515 140.15 55.7649C140.059 55.9783 139.998 56.2171 139.968 56.4813H143.316ZM139.942 56.7912V56.8878C139.942 57.2671 139.986 57.6007 140.074 57.8886C140.162 58.1765 140.288 58.4187 140.45 58.6152C140.613 58.8082 140.809 58.9539 141.04 59.0521C141.27 59.1503 141.527 59.1995 141.812 59.1995C142.066 59.1995 142.286 59.1724 142.472 59.1182C142.659 59.0606 142.814 58.9979 142.94 58.9302C143.068 58.859 143.17 58.7964 143.245 58.7422C143.319 58.6846 143.373 58.6558 143.407 58.6558C143.451 58.6558 143.485 58.6728 143.509 58.7066L143.641 58.8692C143.56 58.9708 143.451 59.0657 143.316 59.1537C143.184 59.2418 143.035 59.318 142.869 59.3824C142.706 59.4433 142.53 59.4924 142.34 59.5297C142.154 59.567 141.966 59.5856 141.776 59.5856C141.431 59.5856 141.116 59.5263 140.831 59.4078C140.547 59.2858 140.303 59.1097 140.1 58.8794C139.896 58.649 139.739 58.3679 139.627 58.036C139.519 57.7007 139.465 57.3179 139.465 56.8878C139.465 56.5253 139.515 56.1917 139.617 55.8869C139.722 55.5786 139.871 55.3145 140.064 55.0943C140.261 54.8707 140.499 54.6963 140.78 54.571C141.065 54.4457 141.387 54.383 141.746 54.383C142.03 54.383 142.294 54.4321 142.538 54.5303C142.782 54.6286 142.994 54.7725 143.173 54.9622C143.353 55.1485 143.493 55.3788 143.595 55.6532C143.7 55.9275 143.753 56.2425 143.753 56.5982C143.753 56.6727 143.742 56.7235 143.722 56.7506C143.702 56.7777 143.668 56.7912 143.621 56.7912H139.942Z" fill="#0EABEB"/>
</svg>
